<svg width="12" height="7" viewBox="0 0 12 7" fill="none" xmlns="http://www.w3.org/2000/svg">
<path fill-rule="evenodd" clip-rule="evenodd" d="M1.80799 1.05317C1.54764 0.792823 1.12553 0.792823 0.865184 1.05317C0.604834 1.31352 0.604834 1.73563 0.865184 1.99598L5.52553 6.65633C5.52759 6.65844 5.52967 6.66055 5.53177 6.66265C5.66246 6.79334 5.83392 6.85843 6.00521 6.85791C6.17518 6.85741 6.34498 6.79233 6.47466 6.66265C6.47675 6.66056 6.47881 6.65847 6.48087 6.65636L11.1412 1.99598C11.4016 1.73563 11.4016 1.31352 11.1412 1.05317C10.8809 0.792823 10.4588 0.792823 10.1984 1.05317L6.00321 5.24839L1.80799 1.05317Z" fill="#2D3440"/>
</svg>
